<svg width="77" height="77" viewBox="0 0 77 77" fill="none" xmlns="http://www.w3.org/2000/svg">
<g clip-path="url(#clip0)">
<path d="M73.3758 27.6896C71.8268 26.6543 70.2078 25.8038 68.8302 25.105C66.5177 23.9325 64.3881 23.0236 62.3188 22.3302C60.0783 21.5795 57.8808 21.0785 55.7884 20.8469C53.0065 20.5338 50.5901 20.713 48.394 21.3946C46.2659 22.0586 44.3291 23.2256 42.7476 24.7967C42.4326 22.5897 41.5898 20.4913 40.2907 18.6795C38.9486 16.8124 37.127 15.2132 34.7172 13.7868C32.9049 12.7101 30.8491 11.7861 28.6113 11.0363C26.5429 10.3432 24.295 9.78442 21.7435 9.32825C20.2229 9.056 18.4172 8.75999 16.5565 8.6519C15.5572 8.59117 3.79487 51.5445 3.79487 51.5445C3.45531 53.2927 3.45531 53.2927 3.49342 54.1607C3.53146 55.0706 4.02556 55.8153 4.75237 56.0588C5.27126 56.2327 5.8387 56.1307 6.35065 55.772C8.38259 54.3456 12.4112 54.3886 16.8626 55.88C17.6019 56.1278 18.3302 56.4087 19.0285 56.7194L21.1121 57.6348C23.9122 58.8661 29.2886 61.3094 29.294 61.3112C29.6032 61.5753 31.0846 62.0717 31.4942 62.0484C31.4995 62.0502 37.2618 63.339 40.2376 64.043C40.9732 64.2187 41.7106 64.392 42.4512 64.5674C43.244 64.7516 44.0273 64.9742 44.7985 65.2342C49.2159 66.7143 52.4228 69.0637 53.1668 71.3684C53.3595 71.9653 53.7519 72.3888 54.2717 72.5629C54.9967 72.8059 55.8382 72.5077 56.4171 71.8065C56.9698 71.1415 74.2199 28.2466 73.3829 27.692" fill="#6C502D"/>
<path d="M42.4447 24.9866C42.5197 24.3196 42.5465 23.648 42.525 22.9771C42.46 20.5362 41.6716 18.1697 40.2598 16.1775C38.899 14.2593 37.0637 12.7961 35.1266 11.6426C31.3188 9.37597 26.9842 8.13097 22.6497 7.36448C20.9995 7.0717 19.3258 6.81894 17.6426 6.72248C16.9547 6.68435 6.25918 51.4963 6.90159 51.0397C10.1974 48.7 16.2757 49.7837 20.7609 51.7719C24.2498 53.3187 27.6441 54.7909 31.0743 56.3967C31.131 56.4267 31.1719 56.4803 31.2208 56.5216C31.5089 56.7656 31.9701 56.5344 32.0947 56.1625L35.0029 47.4829L40.1745 32.0479L41.9461 26.7604L42.3356 25.598C42.4037 25.4005 42.4253 25.1964 42.448 24.9887" fill="#A7A9AC"/>
<path d="M43.3273 22.3776C43.4075 21.7303 43.4435 21.0782 43.4349 20.426C43.402 17.9539 42.6854 15.7132 41.4441 13.8519C40.2137 12.0143 38.5388 10.6228 36.7559 9.52997C33.2596 7.38961 29.2563 6.25362 25.2463 5.57789C23.72 5.31968 22.1736 5.10059 20.6093 5.03898C19.9707 5.01139 9.56087 48.3162 10.1632 47.8601C14.7233 44.4309 18.9351 45.4265 23.2333 47.36C26.4489 48.8063 29.5079 50.7732 32.2505 53.0986C32.2961 53.1378 32.3421 53.1761 32.3854 53.2165C32.6489 53.4474 33.0797 53.2179 33.2016 52.8541L36.0449 44.3681L41.1009 29.278L42.8314 24.1133L43.2125 22.9761C43.2782 22.7798 43.3021 22.5805 43.3273 22.3776Z" fill="#E6E7E8"/>
<path d="M21.9603 10.2452L21.9287 10.3871C22.8372 10.5569 23.7418 10.7464 24.642 10.9553C28.1793 11.7627 31.7582 12.8443 34.9998 14.4806C36.6516 15.3102 38.2455 16.3157 39.4938 17.5404C40.2247 18.2568 40.8144 19.0345 41.2357 19.8505C40.9361 18.5878 40.2455 17.3945 39.2584 16.3511C38.1409 15.1702 36.6993 14.2187 35.2097 13.4405C32.2714 11.9078 29.004 10.9286 25.7741 10.2242C24.5446 9.95782 23.299 9.70692 22.0556 9.55046C21.5464 9.48751 21.5164 10.1154 21.9639 10.2464" fill="#6C502D"/>
<path d="M20.5233 14.5326L20.4917 14.6745C21.4001 14.8446 22.305 15.0334 23.2056 15.2409C26.7422 16.0501 30.3212 17.1317 33.5628 18.768C35.2146 19.5976 36.8085 20.6031 38.0568 21.8278C38.7871 22.5459 39.3774 23.3219 39.7987 24.1379C39.4994 22.8743 38.8078 21.6837 37.8214 20.6384C36.7039 19.4576 35.2629 18.5043 33.7727 17.7279C30.8337 16.1969 27.567 15.216 24.3365 14.5134C23.1064 14.2458 21.8605 13.9958 20.617 13.8393C20.1102 13.7722 20.0797 14.4019 20.5269 14.5338" fill="#6C502D"/>
<path d="M19.3934 18.9152L19.3627 19.0574C20.2717 19.2247 21.1765 19.4135 22.0766 19.6238C25.6144 20.4294 29.1922 21.5146 32.434 23.147C34.0847 23.9802 35.678 24.9815 36.9257 26.208C37.6577 26.9267 38.248 27.7057 38.6712 28.5193C38.3701 27.2551 37.6779 26.0663 36.6902 25.0187C35.5727 23.8378 34.133 22.8869 32.6416 22.1081C29.7032 20.5754 26.4346 19.5998 23.2063 18.8939C21.975 18.6239 20.7296 18.3751 19.4862 18.2156C18.977 18.1527 18.9452 18.786 19.3952 18.9158" fill="#6C502D"/>
<path d="M18.1843 23.908L18.1562 24.0481C19.0645 24.2184 19.9689 24.4085 20.8689 24.6181C24.4062 25.4255 27.9851 26.507 31.2264 28.1413C32.8753 28.9738 34.4697 29.9776 35.7187 31.2005C36.4507 31.9192 37.0413 32.6972 37.4621 33.5121C37.1619 32.2482 36.4736 31.0567 35.4835 30.0102C34.3678 28.83 32.9257 27.8803 31.4348 27.0997C28.4959 25.5687 25.2285 24.5896 22.0014 23.8861C20.7686 23.6176 19.5241 23.3691 18.2798 23.2123C17.7712 23.1476 17.74 23.7791 18.1878 23.9092" fill="#6C502D"/>
<path d="M16.7489 28.1899L16.72 28.3328C17.6288 28.5006 18.5334 28.6901 19.4332 28.901C22.9705 29.7084 26.5494 30.7899 29.7901 32.4259C31.4402 33.2549 33.034 34.2604 34.2824 35.4851C35.0144 36.2039 35.6056 36.9801 36.0264 37.7949C35.7262 36.5311 35.0373 35.3413 34.0472 34.2949C32.9315 33.1147 31.4906 32.1614 29.9985 31.3843C27.0608 29.8498 23.7928 28.8725 20.5657 28.169C19.3335 27.8986 18.0884 27.6519 16.8441 27.4952C16.3343 27.434 16.3052 28.0592 16.7524 28.1911" fill="#6C502D"/>
<path d="M15.6186 32.5806L15.5894 32.7183C16.4985 32.888 17.4037 33.0776 18.3045 33.2871C21.8423 34.0928 25.4183 35.1773 28.6628 36.8106C30.3108 37.6429 31.9061 38.6469 33.1551 39.8698C33.8853 40.588 34.4753 41.3648 34.8985 42.1814C34.5974 40.9173 33.9067 39.7299 32.9193 38.6814C31.8036 37.5011 30.3609 36.5473 28.8707 35.7708C25.9329 34.2363 22.6643 33.2607 19.4378 32.5525C18.2053 32.286 16.9581 32.0366 15.7156 31.8805C15.2064 31.8175 15.1758 32.4472 15.6222 32.5818" fill="#6C502D"/>
<path d="M42.6145 25.0431C42.957 24.4611 43.3434 23.9088 43.7612 23.3909C45.2851 21.4829 47.3405 20.0694 49.6675 19.3292C51.9093 18.6181 54.2557 18.5559 56.4966 18.8024C60.9005 19.2872 65.1111 20.9053 69.0297 22.904C70.5241 23.6649 72.0122 24.4715 73.4137 25.4086C73.9876 25.7933 55.5527 67.9224 55.3139 67.1745C54.0933 63.3176 48.563 60.6014 43.7853 59.486C40.0688 58.6186 36.4719 57.7483 32.7675 56.9637C32.706 56.954 32.6393 56.9715 32.5753 56.975C32.1984 56.9963 31.9696 56.5338 32.0942 56.1619L35.0024 47.4823L40.174 32.0473L41.9456 26.7598L42.3351 25.5974C42.3996 25.3987 42.5054 25.2229 42.6124 25.0434" fill="#A7A9AC"/>
<path d="M43.4812 22.4289C43.8099 21.8612 44.1766 21.3172 44.5728 20.8071C46.0876 18.8535 48.0098 17.493 50.1198 16.7586C52.2099 16.0335 54.3931 15.9346 56.4682 16.1345C60.5483 16.5327 64.4278 18.0379 68.0337 19.9139C69.4062 20.628 70.7754 21.3848 72.0581 22.2781C72.5844 22.6408 54.8044 63.4762 54.5975 62.749C53.0249 57.265 49.0644 55.5223 44.4689 54.476C41.0323 53.6893 37.4064 53.4204 33.8129 53.6229C33.7537 53.6269 33.6948 53.6301 33.6359 53.6363C33.2865 53.6618 33.0791 53.2185 33.201 52.8547L36.0444 44.3687L41.1004 29.2786L42.8309 24.1139L43.2119 22.9766C43.2789 22.7798 43.3817 22.6069 43.4812 22.4289Z" fill="#E6E7E8"/>
<path d="M67.8488 25.6205L67.7876 25.7526C66.9596 25.3406 66.1229 24.9466 65.2779 24.5708C61.9692 23.0844 58.4602 21.791 54.888 21.1444C53.0716 20.8119 51.1937 20.6541 49.4595 20.8795C48.4428 21.0103 47.5054 21.2764 46.6756 21.6732C47.6764 20.8462 48.9457 20.3096 50.364 20.0721C51.9673 19.8029 53.6884 19.9111 55.3489 20.1884C58.6175 20.7353 61.8063 21.9193 64.8175 23.3061C65.9602 23.8345 67.1038 24.3841 68.1923 25.009C68.6366 25.2655 68.2822 25.7847 67.8452 25.6193" fill="#6C502D"/>
<path d="M66.4135 29.9079L66.3524 30.0399C65.5242 29.6283 64.6876 29.2337 63.8433 28.8563C60.5339 27.3717 57.0249 26.0784 53.4528 25.4317C51.6364 25.0993 49.7584 24.9415 48.0242 25.1669C47.0069 25.2995 46.0701 25.5638 45.2404 25.9606C46.2414 25.1327 47.5098 24.5988 48.9287 24.3595C50.5321 24.0903 52.2538 24.1967 53.9136 24.4757C57.1817 25.0245 60.371 26.2067 63.3817 27.5952C64.5247 28.1227 65.6688 28.6706 66.7564 29.2981C67.2023 29.5502 66.8473 30.0712 66.41 29.9067" fill="#6C502D"/>
<path d="M64.6728 34.0869L64.6099 34.2183C63.783 33.8039 62.9464 33.4093 62.1008 33.0347C58.7935 31.5468 55.2842 30.2574 51.7133 29.6072C49.8957 29.2783 48.0171 29.1163 46.2823 29.3435C45.2659 29.4764 44.3264 29.7428 43.5003 30.1378C44.5013 29.3099 45.7674 28.7772 47.1877 28.5364C48.7902 28.2669 50.5113 28.3751 52.1816 28.6556C55.4485 29.202 58.6378 30.3902 61.6475 31.7724C62.7905 32.3 63.9365 32.8514 65.0238 33.4739C65.4681 33.7304 65.1128 34.2553 64.6773 34.0884" fill="#6C502D"/>
<path d="M62.6274 38.7986L62.5671 38.9279C61.7396 38.5167 60.9032 38.1235 60.0586 37.7485C56.7499 36.2621 53.2409 34.9688 49.6693 34.3203C47.8499 33.9908 45.9726 33.8313 44.239 34.0549C43.2226 34.1878 42.2834 34.4532 41.4549 34.8495C42.4559 34.0216 43.7249 33.4859 45.1456 33.2472C46.7471 32.9774 48.4694 33.088 50.1305 33.3634C53.3985 33.9122 56.5873 35.0962 59.5985 36.4829C60.7415 37.0104 61.8863 37.5625 62.9742 38.1831C63.4188 38.4418 63.0632 38.9646 62.6256 38.798" fill="#6C502D"/>
<path d="M61.192 43.0806L61.1308 43.2126C60.3043 42.7991 59.4681 42.4053 58.6229 42.0314C55.3142 40.545 51.8052 39.2517 48.233 38.6051C46.4148 38.272 44.5369 38.1142 42.8027 38.3396C41.7863 38.4725 40.8477 38.7362 40.0192 39.1324C41.0202 38.3045 42.2886 37.7706 43.7093 37.5319C45.3108 37.2621 47.0343 37.3691 48.6942 37.6481C51.9634 38.1933 55.1516 39.3791 58.1628 40.7659C59.3064 41.2916 60.4506 41.8454 61.5379 42.4679C61.9819 42.7283 61.6284 43.2448 61.1902 43.08" fill="#6C502D"/>
<path d="M59.4496 47.2668L59.3927 47.3952C58.5649 46.9829 57.7281 46.5888 56.883 46.2134C53.5739 44.7249 50.0646 43.4355 46.4928 42.7849C44.6743 42.4557 42.7987 42.2968 41.0642 42.5201C40.0487 42.6533 39.108 42.9172 38.281 43.315C39.2811 42.4868 40.5495 41.9559 41.9684 41.7136C43.5718 41.4444 45.2944 41.5511 46.9623 41.8328C50.2298 42.3774 53.4191 43.5656 56.4309 44.9475C57.5733 45.4768 58.7172 46.0286 59.8057 46.6534C60.2491 46.9097 59.8932 47.4304 59.4541 47.2683" fill="#6C502D"/>
<path d="M34.663 56.9014C34.5198 57.3289 32.2369 56.9488 31.8704 56.826C31.5047 56.7035 29.454 55.6306 29.5969 55.204L42.5885 22.6355C42.7318 22.2081 43.1455 21.9609 43.5111 22.0834C43.8777 22.2063 44.059 22.6528 43.9158 23.0803L34.663 56.9014Z" fill="#A7A9AC"/>
</g>
<defs>
<clipPath id="clip0">
<rect width="60.4899" height="60.4899" fill="white" transform="translate(19.2168) rotate(18.5238)"/>
</clipPath>
</defs>
</svg>
